<svg xmlns="http://www.w3.org/2000/svg" xmlns:xlink="http://www.w3.org/1999/xlink" width="500" zoomAndPan="magnify" viewBox="0 0 375 374.999991" height="500" preserveAspectRatio="xMidYMid meet" version="1.0"><defs><clipPath id="2728c73326"><path d="M 135.710938 139.992188 L 161.5625 139.992188 L 161.5625 165.84375 L 135.710938 165.84375 Z M 135.710938 139.992188 " clip-rule="nonzero"/></clipPath><clipPath id="bcdbfaac9c"><path d="M 148.636719 139.992188 C 141.496094 139.992188 135.710938 145.777344 135.710938 152.917969 C 135.710938 160.058594 141.496094 165.84375 148.636719 165.84375 C 155.777344 165.84375 161.5625 160.058594 161.5625 152.917969 C 161.5625 145.777344 155.777344 139.992188 148.636719 139.992188 Z M 148.636719 139.992188 " clip-rule="nonzero"/></clipPath><clipPath id="6857c5ddec"><path d="M 0.710938 0.992188 L 26.5625 0.992188 L 26.5625 26.84375 L 0.710938 26.84375 Z M 0.710938 0.992188 " clip-rule="nonzero"/></clipPath><clipPath id="4c8eaaf70a"><path d="M 13.636719 0.992188 C 6.496094 0.992188 0.710938 6.777344 0.710938 13.917969 C 0.710938 21.058594 6.496094 26.84375 13.636719 26.84375 C 20.777344 26.84375 26.5625 21.058594 26.5625 13.917969 C 26.5625 6.777344 20.777344 0.992188 13.636719 0.992188 Z M 13.636719 0.992188 " clip-rule="nonzero"/></clipPath><clipPath id="973875868d"><rect x="0" width="27" y="0" height="27"/></clipPath><clipPath id="fc889b5d89"><path d="M 13 18 L 360 18 L 360 365.109375 L 13 365.109375 Z M 13 18 " clip-rule="nonzero"/></clipPath></defs><g clip-path="url(#2728c73326)"><g clip-path="url(#bcdbfaac9c)"><g transform="matrix(1, 0, 0, 1, 135, 139)"><g clip-path="url(#973875868d)"><g clip-path="url(#6857c5ddec)"><g clip-path="url(#4c8eaaf70a)"><path fill="#ffffff" d="M 0.710938 0.992188 L 26.5625 0.992188 L 26.5625 26.84375 L 0.710938 26.84375 Z M 0.710938 0.992188 " fill-opacity="1" fill-rule="nonzero"/></g></g></g></g></g></g><g clip-path="url(#fc889b5d89)"><path fill="#5e17eb" d="M 312.515625 247.617188 L 344.1875 237.015625 C 345.84375 236.488281 347.414062 235.769531 348.898438 234.859375 C 350.378906 233.949219 351.734375 232.878906 352.960938 231.644531 C 354.183594 230.40625 355.242188 229.042969 356.140625 227.554688 C 357.035156 226.0625 357.742188 224.484375 358.257812 222.824219 C 366.191406 196.171875 343.320312 178.011719 322.804688 184.890625 L 296.089844 193.878906 C 295.539062 194.0625 294.976562 194.191406 294.402344 194.265625 C 293.828125 194.339844 293.253906 194.355469 292.675781 194.316406 C 292.097656 194.273438 291.527344 194.179688 290.96875 194.023438 C 290.410156 193.871094 289.871094 193.667969 289.351562 193.40625 C 288.835938 193.148438 288.347656 192.839844 287.890625 192.484375 C 287.429688 192.128906 287.011719 191.734375 286.632812 191.292969 C 286.253906 190.855469 285.921875 190.386719 285.636719 189.882812 C 285.347656 189.378906 285.117188 188.851562 284.933594 188.300781 L 267.144531 135.429688 C 266.960938 134.882812 266.832031 134.320312 266.757812 133.746094 C 266.683594 133.171875 266.667969 132.59375 266.707031 132.015625 C 266.75 131.4375 266.847656 130.867188 267 130.308594 C 267.152344 129.75 267.355469 129.210938 267.617188 128.695312 C 267.875 128.175781 268.183594 127.6875 268.539062 127.230469 C 268.894531 126.773438 269.289062 126.355469 269.730469 125.976562 C 270.167969 125.597656 270.636719 125.261719 271.140625 124.976562 C 271.644531 124.691406 272.171875 124.457031 272.722656 124.273438 L 299.4375 115.347656 C 319.828125 108.53125 327.203125 80.515625 305.261719 63.96875 C 303.804688 62.914062 302.238281 62.054688 300.570312 61.382812 C 298.902344 60.710938 297.175781 60.246094 295.394531 59.992188 C 293.613281 59.738281 291.828125 59.703125 290.039062 59.882812 C 288.246094 60.0625 286.503906 60.453125 284.808594 61.054688 L 253.507812 71.46875 C 253.050781 71.621094 252.578125 71.730469 252.097656 71.792969 C 251.617188 71.855469 251.132812 71.871094 250.648438 71.839844 C 250.164062 71.804688 249.6875 71.726562 249.21875 71.601562 C 248.75 71.472656 248.300781 71.300781 247.863281 71.085938 C 247.429688 70.871094 247.019531 70.613281 246.636719 70.316406 C 246.25 70.019531 245.898438 69.6875 245.582031 69.324219 C 245.261719 68.957031 244.984375 68.5625 244.742188 68.140625 C 244.5 67.71875 244.304688 67.277344 244.148438 66.820312 L 234.355469 37.5 C 227.539062 17.109375 199.523438 9.734375 182.976562 31.675781 C 181.921875 33.136719 181.0625 34.699219 180.390625 36.367188 C 179.71875 38.039062 179.253906 39.761719 179 41.542969 C 178.746094 43.324219 178.710938 45.109375 178.890625 46.902344 C 179.070312 48.691406 179.460938 50.433594 180.0625 52.128906 L 190.472656 83.121094 C 190.660156 83.667969 190.789062 84.230469 190.859375 84.804688 C 190.933594 85.378906 190.949219 85.957031 190.910156 86.535156 C 190.871094 87.113281 190.773438 87.679688 190.621094 88.242188 C 190.46875 88.800781 190.261719 89.339844 190.003906 89.855469 C 189.742188 90.375 189.4375 90.863281 189.082031 91.320312 C 188.726562 91.777344 188.328125 92.195312 187.890625 92.574219 C 187.453125 92.953125 186.980469 93.289062 186.476562 93.574219 C 185.972656 93.859375 185.445312 94.09375 184.894531 94.277344 L 129.113281 112.871094 C 128.5625 113.054688 128.003906 113.183594 127.425781 113.257812 C 126.851562 113.332031 126.277344 113.347656 125.699219 113.304688 C 125.121094 113.265625 124.550781 113.167969 123.992188 113.015625 C 123.433594 112.863281 122.894531 112.65625 122.375 112.398438 C 121.859375 112.140625 121.371094 111.832031 120.914062 111.476562 C 120.457031 111.121094 120.035156 110.722656 119.65625 110.285156 C 119.277344 109.847656 118.945312 109.375 118.660156 108.871094 C 118.375 108.367188 118.140625 107.84375 117.957031 107.292969 L 108.597656 79.339844 C 101.78125 58.945312 73.765625 51.570312 57.214844 73.511719 C 56.164062 74.972656 55.300781 76.535156 54.628906 78.207031 C 53.957031 79.875 53.496094 81.597656 53.242188 83.378906 C 52.988281 85.160156 52.949219 86.949219 53.128906 88.738281 C 53.308594 90.527344 53.699219 92.269531 54.304688 93.964844 L 65.210938 126.503906 C 65.382812 126.96875 65.503906 127.445312 65.578125 127.933594 C 65.65625 128.421875 65.679688 128.910156 65.65625 129.40625 C 65.632812 129.898438 65.5625 130.382812 65.441406 130.863281 C 65.320312 131.34375 65.152344 131.804688 64.9375 132.25 C 64.722656 132.695312 64.46875 133.113281 64.171875 133.507812 C 63.871094 133.902344 63.539062 134.261719 63.167969 134.585938 C 62.796875 134.914062 62.398438 135.199219 61.96875 135.445312 C 61.542969 135.691406 61.09375 135.894531 60.625 136.050781 L 29.140625 146.585938 C 27.480469 147.21875 25.910156 148.019531 24.425781 148.988281 C 22.941406 149.957031 21.578125 151.074219 20.332031 152.335938 C 19.085938 153.597656 17.988281 154.976562 17.039062 156.472656 C 16.085938 157.96875 15.308594 159.550781 14.695312 161.214844 C 8.5 183.464844 23.558594 199.707031 40.667969 200.140625 C 43.933594 200.21875 47.113281 199.742188 50.210938 198.714844 L 76.925781 189.726562 C 77.476562 189.542969 78.039062 189.414062 78.613281 189.339844 C 79.1875 189.265625 79.761719 189.25 80.339844 189.289062 C 80.917969 189.332031 81.488281 189.425781 82.046875 189.578125 C 82.605469 189.734375 83.144531 189.9375 83.664062 190.199219 C 84.179688 190.457031 84.667969 190.765625 85.125 191.121094 C 85.585938 191.476562 86.003906 191.871094 86.382812 192.308594 C 86.761719 192.75 87.09375 193.21875 87.378906 193.722656 C 87.667969 194.226562 87.898438 194.753906 88.082031 195.304688 L 105.996094 248.234375 C 106.179688 248.785156 106.308594 249.347656 106.382812 249.921875 C 106.453125 250.496094 106.472656 251.074219 106.429688 251.652344 C 106.390625 252.230469 106.292969 252.796875 106.140625 253.355469 C 105.988281 253.917969 105.78125 254.453125 105.523438 254.972656 C 105.265625 255.492188 104.957031 255.980469 104.601562 256.4375 C 104.246094 256.894531 103.847656 257.3125 103.410156 257.691406 C 102.972656 258.070312 102.5 258.402344 101.996094 258.691406 C 101.492188 258.976562 100.964844 259.210938 100.417969 259.394531 L 70.292969 269.496094 C 68.636719 270.128906 67.066406 270.925781 65.582031 271.894531 C 64.097656 272.863281 62.730469 273.980469 61.484375 275.242188 C 60.238281 276.503906 59.140625 277.882812 58.191406 279.378906 C 57.242188 280.878906 56.464844 282.457031 55.851562 284.121094 C 49.65625 306.375 64.714844 322.613281 81.824219 323.046875 C 85.128906 323.140625 88.351562 322.664062 91.492188 321.621094 L 119.570312 312.199219 C 120.027344 312.042969 120.5 311.933594 120.980469 311.871094 C 121.460938 311.808594 121.945312 311.796875 122.429688 311.828125 C 122.914062 311.859375 123.390625 311.941406 123.859375 312.066406 C 124.328125 312.195312 124.777344 312.363281 125.214844 312.582031 C 125.648438 312.796875 126.058594 313.054688 126.441406 313.351562 C 126.824219 313.648438 127.175781 313.976562 127.496094 314.34375 C 127.816406 314.710938 128.09375 315.105469 128.335938 315.527344 C 128.578125 315.949219 128.773438 316.386719 128.925781 316.847656 L 138.71875 346.164062 C 139.175781 347.527344 139.726562 348.851562 140.382812 350.128906 C 141.039062 351.40625 141.789062 352.628906 142.632812 353.792969 C 143.476562 354.953125 144.40625 356.046875 145.414062 357.066406 C 146.425781 358.089844 147.511719 359.027344 148.664062 359.882812 C 149.820312 360.738281 151.035156 361.496094 152.304688 362.167969 C 153.578125 362.835938 154.894531 363.402344 156.253906 363.867188 C 157.613281 364.335938 159 364.695312 160.414062 364.949219 C 161.828125 365.199219 163.253906 365.34375 164.691406 365.378906 C 167.171875 365.382812 169.621094 365.09375 172.03125 364.511719 C 174.445312 363.929688 176.753906 363.070312 178.960938 361.929688 C 181.164062 360.792969 183.207031 359.410156 185.078125 357.78125 C 186.953125 356.152344 188.605469 354.328125 190.039062 352.300781 C 191.125 350.839844 192.015625 349.269531 192.714844 347.589844 C 193.414062 345.910156 193.898438 344.167969 194.167969 342.367188 C 194.4375 340.570312 194.488281 338.765625 194.3125 336.953125 C 194.136719 335.140625 193.746094 333.378906 193.140625 331.660156 L 182.664062 300.671875 C 182.480469 300.121094 182.351562 299.558594 182.277344 298.984375 C 182.203125 298.410156 182.1875 297.835938 182.230469 297.257812 C 182.269531 296.679688 182.367188 296.109375 182.519531 295.550781 C 182.671875 294.992188 182.878906 294.453125 183.136719 293.933594 C 183.394531 293.417969 183.703125 292.929688 184.058594 292.472656 C 184.414062 292.011719 184.8125 291.59375 185.25 291.214844 C 185.6875 290.835938 186.160156 290.503906 186.664062 290.21875 C 187.167969 289.929688 187.691406 289.699219 188.242188 289.515625 L 244.027344 270.921875 C 244.574219 270.738281 245.136719 270.609375 245.710938 270.535156 C 246.285156 270.460938 246.863281 270.445312 247.441406 270.484375 C 248.019531 270.523438 248.589844 270.621094 249.148438 270.773438 C 249.707031 270.925781 250.246094 271.132812 250.761719 271.390625 C 251.28125 271.652344 251.769531 271.960938 252.226562 272.316406 C 252.683594 272.671875 253.101562 273.066406 253.480469 273.503906 C 253.859375 273.941406 254.195312 274.414062 254.480469 274.917969 C 254.765625 275.421875 255 275.949219 255.183594 276.5 L 264.542969 304.453125 C 264.996094 305.8125 265.550781 307.125 266.207031 308.398438 C 266.863281 309.671875 267.613281 310.890625 268.457031 312.046875 C 269.300781 313.207031 270.226562 314.292969 271.234375 315.3125 C 272.242188 316.328125 273.324219 317.261719 274.476562 318.113281 C 275.628906 318.964844 276.835938 319.726562 278.105469 320.390625 C 279.375 321.058594 280.683594 321.625 282.039062 322.089844 C 283.394531 322.554688 284.777344 322.914062 286.1875 323.167969 C 287.597656 323.421875 289.015625 323.566406 290.449219 323.605469 C 291.710938 323.59375 292.96875 323.507812 294.21875 323.339844 C 295.46875 323.175781 296.703125 322.933594 297.925781 322.613281 C 299.144531 322.292969 300.339844 321.898438 301.511719 321.433594 C 302.683594 320.964844 303.824219 320.425781 304.929688 319.816406 C 306.035156 319.207031 307.097656 318.53125 308.117188 317.792969 C 309.140625 317.050781 310.109375 316.25 311.03125 315.386719 C 311.953125 314.527344 312.816406 313.613281 313.625 312.640625 C 314.433594 311.671875 315.179688 310.660156 315.863281 309.597656 C 316.894531 308.15625 317.738281 306.617188 318.398438 304.972656 C 319.0625 303.332031 319.519531 301.632812 319.773438 299.878906 C 320.023438 298.128906 320.066406 296.371094 319.898438 294.605469 C 319.730469 292.84375 319.355469 291.125 318.773438 289.453125 L 307.867188 256.914062 C 307.714844 256.457031 307.609375 255.988281 307.550781 255.507812 C 307.492188 255.03125 307.480469 254.550781 307.515625 254.070312 C 307.550781 253.589844 307.632812 253.117188 307.757812 252.652344 C 307.886719 252.1875 308.058594 251.738281 308.273438 251.308594 C 308.488281 250.875 308.746094 250.46875 309.039062 250.089844 C 309.335938 249.707031 309.664062 249.359375 310.027344 249.042969 C 310.394531 248.726562 310.785156 248.445312 311.203125 248.207031 C 311.621094 247.96875 312.058594 247.769531 312.515625 247.617188 Z M 223.757812 218.238281 L 172.996094 235.21875 C 172.277344 235.464844 171.542969 235.632812 170.789062 235.730469 C 170.039062 235.832031 169.285156 235.855469 168.527344 235.804688 C 167.769531 235.753906 167.027344 235.628906 166.292969 235.429688 C 165.5625 235.234375 164.855469 234.964844 164.175781 234.628906 C 163.496094 234.292969 162.859375 233.894531 162.257812 233.429688 C 161.65625 232.964844 161.109375 232.449219 160.609375 231.878906 C 160.109375 231.304688 159.671875 230.691406 159.296875 230.035156 C 158.917969 229.375 158.609375 228.6875 158.367188 227.96875 L 142.378906 180.058594 C 142.136719 179.347656 141.964844 178.625 141.863281 177.882812 C 141.765625 177.140625 141.738281 176.394531 141.78125 175.648438 C 141.828125 174.902344 141.941406 174.164062 142.132812 173.441406 C 142.320312 172.714844 142.574219 172.015625 142.898438 171.339844 C 143.222656 170.667969 143.609375 170.03125 144.058594 169.429688 C 144.507812 168.832031 145.007812 168.28125 145.566406 167.78125 C 146.121094 167.277344 146.71875 166.835938 147.363281 166.449219 C 148.003906 166.066406 148.675781 165.746094 149.382812 165.492188 L 200.144531 148.445312 C 200.863281 148.203125 201.597656 148.03125 202.347656 147.933594 C 203.101562 147.835938 203.855469 147.8125 204.613281 147.863281 C 205.367188 147.914062 206.113281 148.039062 206.84375 148.234375 C 207.578125 148.433594 208.28125 148.699219 208.960938 149.039062 C 209.640625 149.375 210.28125 149.773438 210.882812 150.238281 C 211.484375 150.699219 212.03125 151.21875 212.53125 151.789062 C 213.027344 152.359375 213.464844 152.976562 213.84375 153.632812 C 214.21875 154.292969 214.53125 154.980469 214.769531 155.699219 L 230.761719 203.484375 C 231.019531 204.199219 231.199219 204.933594 231.3125 205.683594 C 231.421875 206.433594 231.460938 207.1875 231.421875 207.945312 C 231.382812 208.703125 231.273438 209.449219 231.085938 210.183594 C 230.902344 210.917969 230.648438 211.628906 230.320312 212.316406 C 229.996094 213 229.609375 213.648438 229.15625 214.257812 C 228.703125 214.863281 228.195312 215.421875 227.628906 215.929688 C 227.066406 216.4375 226.460938 216.886719 225.808594 217.273438 C 225.15625 217.664062 224.472656 217.984375 223.757812 218.238281 Z M 223.757812 218.238281 " fill-opacity="1" fill-rule="nonzero"/></g></svg>